<svg xmlns="http://www.w3.org/2000/svg" width="81" height="81" viewBox="0 0 81 81"><g><g><g opacity=".2"><path fill="#eb5238" d="M40.5 0C62.867 0 81 18.132 81 40.5 81 62.867 62.867 81 40.5 81 18.132 81 0 62.867 0 40.5 0 18.132 18.132 0 40.5 0z"/></g><g><path fill="#eb5238" d="M40.5 13C55.688 13 68 25.312 68 40.5S55.688 68 40.5 68 13 55.688 13 40.5 25.312 13 40.5 13z"/></g><g><path fill="#fff" d="M31.005 36.45c0-.606.215-1.213.647-1.687a2.29 2.29 0 0 1 3.328-.088l5.537 5.48 5.498-5.474a2.289 2.289 0 0 1 3.328.077 2.52 2.52 0 0 1-.074 3.463l-7.12 7.089a2.289 2.289 0 0 1-3.248.005l-7.165-7.088a2.496 2.496 0 0 1-.731-1.777z"/></g></g></g></svg>