<svg xmlns="http://www.w3.org/2000/svg" width="91" height="113" viewBox="0 0 91 113"><g><g><g><path fill="#ed543a" d="M45.5 0C70.629 0 91 20.37 91 45.5S70.629 91 45.5 91 0 70.629 0 45.5 20.371 0 45.5 0z"/></g><g><path fill="#fff9df" d="M72 39.473c0 5.266-4.487 11.83-13.336 19.506-6.47 5.613-13.032 9.814-13.097 9.855a1.053 1.053 0 0 1-1.134 0c-.066-.041-6.627-4.242-13.097-9.855C22.486 51.302 18 44.74 18 39.473 18 30.39 25.215 23 34.083 23c4.103 0 7.94 1.546 10.917 4.376C47.977 24.546 51.814 23 55.917 23 64.785 23 72 30.39 72 39.473zm-2.11 0c0-7.92-6.268-14.363-13.973-14.363-3.873 0-7.475 1.592-10.142 4.484a1.054 1.054 0 0 1-1.55 0c-2.667-2.892-6.269-4.484-10.142-4.484-7.705 0-13.974 6.443-13.974 14.363 0 4.562 4.36 10.756 12.61 17.912 5.259 4.563 10.57 8.17 12.28 9.3 1.714-1.133 7.04-4.75 12.3-9.316 8.238-7.149 12.592-13.337 12.592-17.896zm-14.037-9.772a1.055 1.055 0 0 1-.865 1.216l-.021.004a1.055 1.055 0 0 1-.369-2.077l.04-.008a1.055 1.055 0 0 1 1.215.865zm10.49 9.462a1.055 1.055 0 1 1-2.11 0c0-3.691-2.353-6.99-5.724-8.025a1.055 1.055 0 0 1 .618-2.017c2.045.627 3.885 1.953 5.18 3.732a10.647 10.647 0 0 1 2.036 6.31z"/></g><g><g><path fill="#ffcc36" d="M44.5 76C54.717 76 63 84.283 63 94.5S54.717 113 44.5 113 26 104.717 26 94.5 34.283 76 44.5 76z"/></g><g><g><text dominant-baseline="text-before-edge" style="line-height:24px" fill="#fff" font-family="'Poppins','Poppins-Light'" font-size="30" font-style="none" font-weight="lighter" transform="translate(37 86)"><tspan style="font-kerning:normal">+</tspan></text></g></g></g></g></g></svg>