<svg id="icon" xmlns="http://www.w3.org/2000/svg" width="76" height="76" viewBox="0 0 76 76">
  <metadata><?xpacket begin="﻿" id="W5M0MpCehiHzreSzNTczkc9d"?>
<x:xmpmeta xmlns:x="adobe:ns:meta/" x:xmptk="Adobe XMP Core 5.6-c138 79.159824, 2016/09/14-01:09:01        ">
   <rdf:RDF xmlns:rdf="http://www.w3.org/1999/02/22-rdf-syntax-ns#">
      <rdf:Description rdf:about=""/>
   </rdf:RDF>
</x:xmpmeta>
                                                                                                    
                                                                                                    
                                                                                                    
                                                                                                    
                                                                                                    
                                                                                                    
                                                                                                    
                                                                                                    
                                                                                                    
                                                                                                    
                                                                                                    
                                                                                                    
                                                                                                    
                                                                                                    
                                                                                                    
                                                                                                    
                                                                                                    
                                                                                                    
                                                                                                    
                                                                                                    
                           
<?xpacket end="w"?></metadata>
<defs>
    <style>
      .cls-1, .cls-2 {
        fill: #eb5238;
      }

      .cls-1 {
        opacity: 0.36;
      }

      .cls-3 {
        fill: #fff;
        fill-rule: evenodd;
      }
    </style>
  </defs>
  <circle class="cls-1" cx="38" cy="38" r="38"/>
  <circle id="Ellipse_1_copy" data-name="Ellipse 1 copy" class="cls-2" cx="37.375" cy="37.375" r="31.156"/>
  <path class="cls-3" d="M242.452,2085.58h-3.486a0.88,0.88,0,1,0,0,1.76h3.486a0.95,0.95,0,1,1,0,1.9h-9.384a4.758,4.758,0,0,1-3.639-1.66l-2.244-2.64a6.568,6.568,0,0,0-4.831-2.29v-5.19h3.307a6.3,6.3,0,0,1,4.35,1.72l4.843,4.57a0.847,0.847,0,0,1,.035,1.2,0.9,0.9,0,0,1-1.245.05l-3.8-3.4a0.908,0.908,0,0,0-1.269.05,0.863,0.863,0,0,0,.055,1.24l3.8,3.41a2.739,2.739,0,0,0,3.78-.16,2.592,2.592,0,0,0-.108-3.66l-4.844-4.57a8.13,8.13,0,0,0-5.6-2.2h-3.482a2.225,2.225,0,0,0-2.052-1.34H215.9a0.893,0.893,0,0,0-.9.88v6.42a0.9,0.9,0,0,0,1.8,0v-5.54h3.33a0.427,0.427,0,0,1,.43.42v7.04a0.427,0.427,0,0,1-.43.42h-0.933a0.875,0.875,0,1,0,0,1.75h0.933a2.224,2.224,0,0,0,2.065-1.36,4.774,4.774,0,0,1,3.612,1.66l2.244,2.64a6.58,6.58,0,0,0,5.02,2.3h9.384A2.711,2.711,0,1,0,242.452,2085.58Zm17.65-24.47a0.887,0.887,0,0,0-.9.88v5.88h-3.33a0.427,0.427,0,0,1-.43-0.42v-7.04a0.427,0.427,0,0,1,.43-0.42h0.867a0.875,0.875,0,1,0,0-1.75h-0.867a2.224,2.224,0,0,0-2.065,1.36,4.774,4.774,0,0,1-3.612-1.66l-2.244-2.64a6.582,6.582,0,0,0-5.021-2.3h-9.383a2.711,2.711,0,1,0,0,5.42h3.837a0.88,0.88,0,1,0,0-1.76h-3.837a0.95,0.95,0,1,1,0-1.9h9.383a4.755,4.755,0,0,1,3.639,1.66l2.244,2.64a6.571,6.571,0,0,0,4.832,2.29v5.19h-3.308a6.3,6.3,0,0,1-4.349-1.72l-4.843-4.57a0.848,0.848,0,0,1-.036-1.2,0.9,0.9,0,0,1,1.245-.05l3.8,3.4a0.908,0.908,0,0,0,1.269-.05,0.863,0.863,0,0,0-.055-1.24l-3.8-3.41a2.728,2.728,0,0,0-3.779.16,2.591,2.591,0,0,0,.108,3.66l4.843,4.57a8.133,8.133,0,0,0,5.6,2.2h3.483a2.224,2.224,0,0,0,2.052,1.34H260.1a0.893,0.893,0,0,0,.9-0.88v-6.76A0.887,0.887,0,0,0,260.1,2061.11Zm-16.1,21.74a0.916,0.916,0,0,0-1.187-.44,0.879,0.879,0,0,0-.465,1.16,0.9,0.9,0,0,0,.824.53,0.916,0.916,0,0,0,.358-0.08h0.019A0.877,0.877,0,0,0,244.005,2082.85Zm2.233-1.47a0.923,0.923,0,0,0-1.258-.19,0.869,0.869,0,0,0-.194,1.23,0.919,0.919,0,0,0,.726.36,0.942,0.942,0,0,0,.53-0.17l0.011-.01A0.858,0.858,0,0,0,246.238,2081.38Zm-4.745,2.46a0.9,0.9,0,0,0-1.061-.68,0.877,0.877,0,0,0,.174,1.74,0.49,0.49,0,0,0,.169-0.02H240.8A0.878,0.878,0,0,0,241.493,2083.84Zm6.622-4.37a0.908,0.908,0,0,0-1.269.06,0.041,0.041,0,0,1-.019.02,0.867,0.867,0,0,0,.093,1.24,0.927,0.927,0,0,0,1.261-.08A0.866,0.866,0,0,0,248.115,2079.47Zm-0.5.74-0.1-.09,0.108,0.09h-0.008Zm2.788-5.5a0.9,0.9,0,0,0-1.121.59,0.867,0.867,0,0,0,.594,1.09,0.813,0.813,0,0,0,.265.04,0.893,0.893,0,0,0,.858-0.62l0-.01A0.871,0.871,0,0,0,250.4,2074.71Zm1.151-4.53c0-.01,0-0.02-0.007-0.03a0.893,0.893,0,0,0-1.062-.68,0.878,0.878,0,0,0-.7,1.03,0.891,0.891,0,0,0,.881.71,0.866,0.866,0,0,0,.16-0.01A0.882,0.882,0,0,0,251.552,2070.18Zm-0.824,1.9a0.9,0.9,0,0,0-.974.8c0,0.01,0,.03,0,0.04a0.882,0.882,0,0,0,.844.92c0.018,0,.036.01,0.054,0.01A0.886,0.886,0,0,0,250.728,2072.08Zm-1.206,5.13a0.911,0.911,0,0,0-1.225.33l-0.012.02a0.865,0.865,0,0,0,.359,1.19,0.841,0.841,0,0,0,.43.11,0.9,0.9,0,0,0,.786-0.45l-0.781-.44,0.781,0.43A0.86,0.86,0,0,0,249.522,2077.21Zm-16.293-16.72a0.908,0.908,0,0,0-1.205-.39h-0.008a0.869,0.869,0,0,0-.4,1.18,0.911,0.911,0,0,0,.805.48,0.965,0.965,0,0,0,.4-0.09A0.873,0.873,0,0,0,233.229,2060.49Zm2.6-.73a0.906,0.906,0,0,0-1.085-.65s-0.017.01-.021,0.01a0.877,0.877,0,0,0-.648,1.07,0.9,0.9,0,0,0,.868.66,0.868,0.868,0,0,0,.224-0.03A0.881,0.881,0,0,0,235.828,2059.76Zm-4.975,2a0.914,0.914,0,0,0-1.262-.14l0.556,0.69-0.559-.68a0.86,0.86,0,0,0-.143,1.23,0.915,0.915,0,0,0,1.262.14l0.012-.01A0.862,0.862,0,0,0,230.853,2061.76Zm-4.789,6.24a0.9,0.9,0,0,0-1.1.62c0,0.01-.007.02-0.009,0.03a0.88,0.88,0,0,0,.661,1.06,0.77,0.77,0,0,0,.213.02,0.889,0.889,0,0,0,.871-0.66A0.878,0.878,0,0,0,226.064,2068Zm-0.573,2.58a0.889,0.889,0,0,0-.949.83c0,0.01,0,.02,0,0.03a0.883,0.883,0,0,0,.871.9h0.027A0.88,0.88,0,0,0,225.491,2070.58Zm1.7-4.98a0.914,0.914,0,0,0-1.213.37l-0.014.03a0.874,0.874,0,0,0,.409,1.18,0.933,0.933,0,0,0,.4.09,0.9,0.9,0,0,0,.805-0.49A0.872,0.872,0,0,0,227.194,2065.6Zm1.623-2.11a0.908,0.908,0,0,0-1.266.12,0.036,0.036,0,0,0-.018.02,0.861,0.861,0,0,0,.146,1.23,0.913,0.913,0,0,0,1.26-.14A0.865,0.865,0,0,0,228.817,2063.49Zm-2.311,10.44a0.906,0.906,0,0,0-1.042-.71,0.886,0.886,0,0,0-.726,1.02v0.01A0.9,0.9,0,0,0,226.506,2073.93Zm14.578-6.66a4.19,4.19,0,0,0-3.024,1.27,4.192,4.192,0,0,0-3.025-1.27,4.132,4.132,0,0,0-4.172,4.08,4.037,4.037,0,0,0,1.5,3.13c0.006,0,.012.01,0.018,0.01l5.119,3.96a0.916,0.916,0,0,0,1.117,0l5.337-4.15a0.372,0.372,0,0,0,.074-0.07,3.988,3.988,0,0,0,1.226-2.88A4.131,4.131,0,0,0,241.084,2067.27Zm1.71,5.69-4.736,3.68-4.551-3.52a2.29,2.29,0,0,1-.847-1.77,2.385,2.385,0,0,1,4.57-.89,0.908,0.908,0,0,0,1.66,0,2.385,2.385,0,0,1,4.569.89A2.3,2.3,0,0,1,242.794,2072.96Zm-26.9,11.05a0.875,0.875,0,1,1-.9.87A0.883,0.883,0,0,1,215.9,2084.01Zm44.2-25.77a0.875,0.875,0,1,1-.895.88A0.885,0.885,0,0,1,260.1,2058.24Z" transform="translate(-200 -2035)"/>
</svg>
