<svg id="icon" xmlns="http://www.w3.org/2000/svg" width="76" height="76" viewBox="0 0 76 76">
  <metadata><?xpacket begin="﻿" id="W5M0MpCehiHzreSzNTczkc9d"?>
<x:xmpmeta xmlns:x="adobe:ns:meta/" x:xmptk="Adobe XMP Core 5.6-c138 79.159824, 2016/09/14-01:09:01        ">
   <rdf:RDF xmlns:rdf="http://www.w3.org/1999/02/22-rdf-syntax-ns#">
      <rdf:Description rdf:about=""/>
   </rdf:RDF>
</x:xmpmeta>
                                                                                                    
                                                                                                    
                                                                                                    
                                                                                                    
                                                                                                    
                                                                                                    
                                                                                                    
                                                                                                    
                                                                                                    
                                                                                                    
                                                                                                    
                                                                                                    
                                                                                                    
                                                                                                    
                                                                                                    
                                                                                                    
                                                                                                    
                                                                                                    
                                                                                                    
                                                                                                    
                           
<?xpacket end="w"?></metadata>
<defs>
    <style>
      .cls-1, .cls-2 {
        fill: #fff;
      }

      .cls-1 {
        opacity: 0.36;
      }

      .cls-3 {
        fill: #0d3e60;
        fill-rule: evenodd;
      }
    </style>
  </defs>
  <circle class="cls-1" cx="38" cy="38" r="38"/>
  <circle id="Ellipse_1_copy" data-name="Ellipse 1 copy" class="cls-2" cx="37.375" cy="37.375" r="31.156"/>
  <path class="cls-3" d="M531.644,2205.35h-5.036v-2.46a1.886,1.886,0,0,0-1.874-1.89h-26.8a1.94,1.94,0,0,0-1.931,1.95v13.91a1.94,1.94,0,0,0,1.931,1.95h0.727l0.9,3.03a0.618,0.618,0,0,0,.54.45h0.06a0.616,0.616,0,0,0,.554-0.33l1.634-3.15h1.278v4.98a2.371,2.371,0,0,0,2.136,2.37v4.98h-1.016a2,2,0,0,0-1.988,2V2242a2,2,0,0,0,1.988,2h13.127a2,2,0,0,0,1.987-2v-8.86a2,2,0,0,0-1.987-2h-1.016v-4.97h7.15l1.316,4.39a0.628,0.628,0,0,0,1.2,0l1.316-4.39h3.808a2.372,2.372,0,0,0,2.356-2.38v-16.06A2.372,2.372,0,0,0,531.644,2205.35Zm-13.772,27.05a0.737,0.737,0,0,1,.736.74V2242a0.737,0.737,0,0,1-.736.74H504.745a0.737,0.737,0,0,1-.736-0.74v-8.86a0.737,0.737,0,0,1,.736-0.74h13.127Zm-10.86-1.26v-4.97H508.1v4.97h-1.085Zm2.336,0v-4.97h3.921v4.97h-3.921Zm23.4-7.35h0a1.112,1.112,0,0,1-1.1,1.12h-4.273a0.624,0.624,0,0,0-.6.45l-0.851,2.84-0.851-2.84a0.623,0.623,0,0,0-.6-0.45h-7.642a5.444,5.444,0,0,0-.2-1.03,0.607,0.607,0,0,0-.726-0.42h-0.016a0.622,0.622,0,0,0-.456.78,4.346,4.346,0,0,1,.175,1.22v5.68H514.52v-5.68a3.227,3.227,0,0,0-2.586-3.17v-1.11a4.275,4.275,0,0,1,1.845.74,0.6,0.6,0,0,0,.875-0.18c0-.01.008-0.01,0.012-0.02a0.618,0.618,0,0,0-.153-0.82,5.534,5.534,0,0,0-2.579-.99v-0.39a0.652,0.652,0,0,0-.606-0.66,0.631,0.631,0,0,0-.645.63v4.35a0.652,0.652,0,0,0,.606.66,0.631,0.631,0,0,0,.645-0.63v-0.28a1.987,1.987,0,0,1,1.256,1.32h-7.209a1.112,1.112,0,0,1-1.1-1.12v-8.07a0.646,0.646,0,0,0-.607-0.66,0.631,0.631,0,0,0-.645.63v1.86h-1.657a0.624,0.624,0,0,0-.555.34l-1.1,2.11-0.593-2a0.624,0.624,0,0,0-.6-0.45h-1.193a0.686,0.686,0,0,1-.68-0.69v-13.91a0.686,0.686,0,0,1,.68-0.69h26.8a0.626,0.626,0,0,1,.623.63v2.46H505.981a2.372,2.372,0,0,0-2.356,2.38V2212a0.643,0.643,0,0,0,.607.65,0.625,0.625,0,0,0,.645-0.63v-4.29a1.109,1.109,0,0,1,1.1-1.11h25.663a1.109,1.109,0,0,1,1.1,1.11v16.06h0Zm-7.925-14.09H508.639a0.63,0.63,0,0,0,0,1.26h16.184A0.63,0.63,0,0,0,524.823,2209.7Zm3.671,0h-1.5a0.63,0.63,0,0,0,0,1.26h1.5A0.63,0.63,0,0,0,528.494,2209.7Zm0,3.28H512.309a0.63,0.63,0,0,0,0,1.26h16.185A0.63,0.63,0,0,0,528.494,2212.98Zm-18.354,0h-1.5a0.63,0.63,0,0,0,0,1.26h1.5A0.63,0.63,0,0,0,510.14,2212.98Zm9.386,3.45h-10.8a0.626,0.626,0,0,0-.625.63,0.633,0.633,0,0,0,.625.63h10.8a0.633,0.633,0,0,0,.625-0.63A0.626,0.626,0,0,0,519.526,2216.43Zm8.926,0h-5.84a0.626,0.626,0,0,0-.625.63,0.633,0.633,0,0,0,.625.63h5.84a0.633,0.633,0,0,0,.626-0.63A0.627,0.627,0,0,0,528.452,2216.43Zm-15.294,21.67a2.63,2.63,0,1,0-3.7,0l-0.381,1.97a1.3,1.3,0,0,0,.267,1.07,1.283,1.283,0,0,0,.984.46h1.959a1.283,1.283,0,0,0,.984-0.46,1.3,1.3,0,0,0,.267-1.07Zm-1.3-.12,0.451,2.33c0,0.01,0,.02,0,0.02a0.02,0.02,0,0,1-.019.01h-1.958a0.02,0.02,0,0,1-.018-0.01c-0.007,0-.006-0.01,0-0.02l0.451-2.33a0.634,0.634,0,0,0-.25-0.63,1.386,1.386,0,0,1,.642-2.5,0.866,0.866,0,0,1,.16-0.01,1.354,1.354,0,0,1,.917.35,1.391,1.391,0,0,1-.117,2.16A0.628,0.628,0,0,0,511.86,2237.98Z" transform="translate(-477 -2184)"/>
</svg>
